<?xml version="1.0" encoding="iso-8859-1"?>
<!-- Uploaded to: SVG Repo, www.svgrepo.com, Generator: SVG Repo Mixer Tools -->
<svg fill="#000000" height="800px" width="800px" version="1.1" id="Capa_1" xmlns="http://www.w3.org/2000/svg" xmlns:xlink="http://www.w3.org/1999/xlink" 
	 viewBox="0 0 469.5 469.5" xml:space="preserve">
<g>
	<path d="M416.25,97c4.142,0,7.5-3.358,7.5-7.5V36.95C423.75,16.576,406.852,0,386.081,0H83.15c-20.972,0-37.4,16.23-37.4,36.95
		v335.1c0,20.926,16.777,37.95,37.4,37.95h73.6v52c0,2.599,1.346,5.013,3.557,6.38s4.973,1.491,7.297,0.328l36.646-18.323
		l36.646,18.323c1.059,0.529,2.208,0.792,3.354,0.792c1.372,0,2.739-0.376,3.943-1.12c2.211-1.367,3.557-3.781,3.557-6.38v-52.013
		l134.33-0.237c20.772,0,37.67-16.912,37.67-37.7V319.5c0-4.142-3.358-7.5-7.5-7.5h-52.5V97H416.25z M408.75,36.95V82h-45V37.45
		c0-12.33,10.023-22.398,22.345-22.45C398.589,15.008,408.75,24.852,408.75,36.95z M240.718,340.384
		c-1.05,0.562-1.948,1.367-2.625,2.339c-9.411,7.825-21.239,12.127-33.493,12.127c-13.013,0-25.507-4.817-35.176-13.56
		c-11.009-9.967-17.324-24.161-17.324-38.94c0-28.949,23.551-52.5,52.5-52.5s52.5,23.551,52.5,52.5
		C257.1,316.731,251.146,330.475,240.718,340.384z M236.75,449.865l-29.146-14.573c-2.111-1.056-4.597-1.056-6.708,0l-29.146,14.573
		v-88.566c9.971,5.571,21.248,8.551,32.85,8.551c11.314,0,22.348-2.844,32.15-8.168V449.865z M251.75,350.601
		c12.972-12.679,20.35-30.072,20.35-48.251c0-37.22-30.28-67.5-67.5-67.5s-67.5,30.28-67.5,67.5c0,17.806,7.12,34.943,19.65,47.569
		V395h-73.6c-12.352,0-22.4-10.295-22.4-22.95V36.95c0-12.309,9.839-21.95,22.4-21.95h273.108c-4.71,6.264-7.508,14.041-7.508,22.45
		v334.6c0,8.535,2.846,16.42,7.626,22.752l-104.626,0.185V350.601z M408.75,327v45.05c0,12.298-10.369,22.688-22.662,22.7
		c-12.319-0.056-22.338-10.234-22.338-22.7V327H408.75z"/>
	<path d="M204.6,264.85c-20.678,0-37.5,16.822-37.5,37.5s16.822,37.5,37.5,37.5s37.5-16.822,37.5-37.5S225.278,264.85,204.6,264.85z
		 M204.6,324.85c-12.407,0-22.5-10.093-22.5-22.5s10.093-22.5,22.5-22.5s22.5,10.093,22.5,22.5S217.007,324.85,204.6,324.85z"/>
	<path d="M304.75,152h-200c-4.142,0-7.5,3.358-7.5,7.5s3.358,7.5,7.5,7.5h200c4.142,0,7.5-3.358,7.5-7.5S308.892,152,304.75,152z"/>
	<path d="M274.75,182h-140c-4.142,0-7.5,3.358-7.5,7.5s3.358,7.5,7.5,7.5h140c4.142,0,7.5-3.358,7.5-7.5S278.892,182,274.75,182z"/>
	<path d="M304.75,122h-30c-4.142,0-7.5,3.358-7.5,7.5s3.358,7.5,7.5,7.5h30c4.142,0,7.5-3.358,7.5-7.5S308.892,122,304.75,122z"/>
	<path d="M104.75,137h140c4.142,0,7.5-3.358,7.5-7.5s-3.358-7.5-7.5-7.5h-140c-4.142,0-7.5,3.358-7.5,7.5S100.608,137,104.75,137z"
		/>
	<path d="M129.995,95.589c1.369,1.065,2.991,1.581,4.6,1.581c2.235,0,4.446-0.995,5.925-2.895l17.419-22.39l17.411,22.388
		c1.421,1.827,3.605,2.896,5.919,2.896c2.315,0,4.5-1.068,5.92-2.895l17.419-22.39l17.411,22.388
		c1.421,1.827,3.606,2.896,5.92,2.896s4.5-1.069,5.92-2.896l17.41-22.387l17.41,22.387c2.542,3.27,7.254,3.86,10.524,1.316
		c3.27-2.543,3.859-7.255,1.316-10.524l-23.33-30c-1.421-1.827-3.606-2.896-5.92-2.896s-4.5,1.069-5.92,2.896l-17.41,22.387
		l-17.41-22.387c-1.421-1.827-3.605-2.896-5.919-2.896c-2.315,0-4.5,1.068-5.92,2.895l-17.419,22.39L163.86,55.066
		c-1.421-1.827-3.605-2.896-5.919-2.896c-2.315,0-4.5,1.068-5.92,2.895l-23.34,30C126.137,88.334,126.726,93.046,129.995,95.589z"/>
</g>
</svg>